HIERARCHY
ROOT hip
{
  OFFSET 0 0 0
  CHANNELS 6 Xposition Yposition Zposition Zrotation Yrotation Xrotation
  JOINT abdomen
  {
    OFFSET 0 20.6881 -0.73152
    CHANNELS 3 Zrotation Xrotation Yrotation
    JOINT chest
    {
      OFFSET 0 11.7043 -0.48768
      CHANNELS 3 Zrotation Xrotation Yrotation
      JOINT neck
      {
        OFFSET 0 22.1894 -2.19456
        CHANNELS 3 Zrotation Xrotation Yrotation
        JOINT head
        {
          OFFSET -0.24384 7.07133 1.2192
          CHANNELS 3 Zrotation Xrotation Yrotation
          JOINT leftEye
          {
            OFFSET 4.14528 8.04674 8.04672
            CHANNELS 3 Zrotation Xrotation Yrotation
            End Site
            {
              OFFSET 1 0 0
            }
          }
          JOINT rightEye
          {
            OFFSET -3.6576 8.04674 8.04672
            CHANNELS 3 Zrotation Xrotation Yrotation
            End Site
            {
              OFFSET 1 0 0
            }
          }
        }
      }
      JOINT rCollar
      {
        OFFSET -2.68224 19.2634 -4.8768
        CHANNELS 3 Zrotation Xrotation Yrotation
        JOINT rShldr
        {
          OFFSET -8.77824 -1.95073 1.46304
          CHANNELS 3 Zrotation Xrotation Yrotation
          JOINT rForeArm
          {
            OFFSET -28.1742 -1.7115 0.48768
            CHANNELS 3 Zrotation Xrotation Yrotation
            JOINT rHand
            {
              OFFSET -22.5879 0.773209 7.07136
              CHANNELS 3 Zrotation Xrotation Yrotation
              JOINT rThumb1
              {
                OFFSET -1.2192 -0.487915 3.41376
                CHANNELS 3 Zrotation Xrotation Yrotation
                JOINT rThumb2
                {
                  OFFSET -3.37035 -0.52449 3.41376
                  CHANNELS 3 Zrotation Xrotation Yrotation
                  End Site
                  {
                    OFFSET -1.78271 -1.18214 1.43049
                  }
                }
              }
              JOINT rIndex1
              {
                OFFSET -7.75947 0.938293 5.60832
                CHANNELS 3 Zrotation Xrotation Yrotation
                JOINT rIndex2
                {
                  OFFSET -2.54057 -0.884171 1.56538
                  CHANNELS 3 Zrotation Xrotation Yrotation
                  End Site
                  {
                    OFFSET -1.62519 -0.234802 1.16502
                  }
                }
              }
              JOINT rMid1
              {
                OFFSET -8.24714 1.18213 3.41376
                CHANNELS 3 Zrotation Xrotation Yrotation
                JOINT rMid2
                {
                  OFFSET -3.10165 -0.590103 1.0647
                  CHANNELS 3 Zrotation Xrotation Yrotation
                  End Site
                  {
                    OFFSET -2.48547 -0.328903 0.83742
                  }
                }
              }
              JOINT rRing1
              {
                OFFSET -8.82822 0.546677 1.51678
                CHANNELS 3 Zrotation Xrotation Yrotation
                JOINT rRing2
                {
                  OFFSET -2.60934 -0.819778 -0.0198488
                  CHANNELS 3 Zrotation Xrotation Yrotation
                  End Site
                  {
                    OFFSET -2.33842 -0.294052 0.168128
                  }
                }
              }
              JOINT rPinky1
              {
                OFFSET -8.27202 -0.0477905 -0.4584
                CHANNELS 3 Zrotation Xrotation Yrotation
                JOINT rPinky2
                {
                  OFFSET -1.82734 -0.647385 -0.700984
                  CHANNELS 3 Zrotation Xrotation Yrotation
                  End Site
                  {
                    OFFSET -1.69225 -0.51767 -0.607171
                  }
                }
              }
            }
          }
        }
      }
      JOINT lCollar
      {
        OFFSET 2.68224 19.2634 -4.8768
        CHANNELS 3 Zrotation Xrotation Yrotation
        JOINT lShldr
        {
          OFFSET 8.77824 -1.95073 1.46304
          CHANNELS 3 Zrotation Xrotation Yrotation
          JOINT lForeArm
          {
            OFFSET 28.1742 -1.7115 0.48768
            CHANNELS 3 Zrotation Xrotation Yrotation
            JOINT lHand
            {
              OFFSET 22.5879 0.773209 7.07136
              CHANNELS 3 Zrotation Xrotation Yrotation
              JOINT lThumb1
              {
                OFFSET 1.2192 -0.487915 3.41376
                CHANNELS 3 Zrotation Xrotation Yrotation
                JOINT lThumb2
                {
                  OFFSET 3.37035 -0.52449 3.41376
                  CHANNELS 3 Zrotation Xrotation Yrotation
                  End Site
                  {
                    OFFSET 1.78271 -1.18214 1.43049
                  }
                }
              }
              JOINT lIndex1
              {
                OFFSET 7.75947 0.938293 5.60832
                CHANNELS 3 Zrotation Xrotation Yrotation
                JOINT lIndex2
                {
                  OFFSET 2.54057 -0.884171 1.56538
                  CHANNELS 3 Zrotation Xrotation Yrotation
                  End Site
                  {
                    OFFSET 1.62519 -0.234802 1.16502
                  }
                }
              }
              JOINT lMid1
              {
                OFFSET 8.24714 1.18213 3.41376
                CHANNELS 3 Zrotation Xrotation Yrotation
                JOINT lMid2
                {
                  OFFSET 3.10165 -0.590103 1.0647
                  CHANNELS 3 Zrotation Xrotation Yrotation
                  End Site
                  {
                    OFFSET 2.48547 -0.328903 0.83742
                  }
                }
              }
              JOINT lRing1
              {
                OFFSET 8.82822 0.546677 1.51678
                CHANNELS 3 Zrotation Xrotation Yrotation
                JOINT lRing2
                {
                  OFFSET 2.60934 -0.819778 -0.0198488
                  CHANNELS 3 Zrotation Xrotation Yrotation
                  End Site
                  {
                    OFFSET 2.33842 -0.294052 0.168128
                  }
                }
              }
              JOINT lPinky1
              {
                OFFSET 8.27202 -0.0477905 -0.4584
                CHANNELS 3 Zrotation Xrotation Yrotation
                JOINT lPinky2
                {
                  OFFSET 1.82734 -0.647385 -0.700984
                  CHANNELS 3 Zrotation Xrotation Yrotation
                  End Site
                  {
                    OFFSET 1.69225 -0.51767 -0.607171
                  }
                }
              }
            }
          }
        }
      }
    }
  }
  JOINT rButtock
  {
    OFFSET -8.77824 4.35084 1.2192
    CHANNELS 3 Zrotation Xrotation Yrotation
    JOINT rThigh
    {
      OFFSET 0 -1.70687 -2.19456
      CHANNELS 3 Zrotation Xrotation Yrotation
      JOINT rShin
      {
        OFFSET 0 -36.8199 0.73152
        CHANNELS 3 Zrotation Xrotation Yrotation
        JOINT rFoot
        {
          OFFSET 0.73152 -45.1104 -5.12064
          CHANNELS 3 Zrotation Xrotation Yrotation
          End Site
          {
            OFFSET -1.1221 -3.69964 12.103
          }
        }
      }
    }
  }
  JOINT lButtock
  {
    OFFSET 8.77824 4.35084 1.2192
    CHANNELS 3 Zrotation Xrotation Yrotation
    JOINT lThigh
    {
      OFFSET 0 -1.70687 -2.19456
      CHANNELS 3 Zrotation Xrotation Yrotation
      JOINT lShin
      {
        OFFSET 0 -36.8199 0.73152
        CHANNELS 3 Zrotation Xrotation Yrotation
        JOINT lFoot
        {
          OFFSET -0.73152 -45.1104 -5.12064
          CHANNELS 3 Zrotation Xrotation Yrotation
          End Site
          {
            OFFSET 1.1221 -3.69964 12.103
          }
        }
      }
    }
  }
}
MOTION
Frames:	9
Frame Time:	0.00833333
-177.424 85.2982 -4.4296 0.0 0.0 0.0 0.984353 -0.00436094 0.0272513 0.271545 -0.0045535 0.0470444 -2.82263e-14 -1.59028e-15 -6.21203e-17 -8.45891e-14 3.18055e-15 -1.3977e-16 -0.0 0.0 0.0 -0.0 0.0 0.0 -1.40657e-14 1.0871e-17 1.49089e-16 -2.9511e-13 -1.86361e-16 -5.96354e-16 -5.10936e-12 1.53183e-12 2.54444e-14 -5.84252e-11 -1.49645e-12 -2.09917e-13 -1.37823e-10 7.94936e-14 -3.75305e-13 -2.38024e-10 1.39944e-13 -6.42472e-13 -1.37816e-10 8.42847e-14 -3.88028e-13 7.73091 5.47488 0.417314 -1.37823e-10 8.01102e-14 -3.72125e-13 2.90554 0.965183 0.102902 -1.37817e-10 7.99114e-14 -3.72125e-13 10.2786 0.731801 0.0259123 -1.37829e-10 7.91163e-14 -3.62583e-13 2.22167 -0.733487 -0.20892 -1.41626e-14 1.10652e-17 -2.48481e-16 -2.98629e-13 3.29237e-16 -2.38542e-15 -5.10116e-12 -1.51991e-12 3.49861e-14 -5.84213e-11 1.57666e-12 -2.06736e-13 -1.37798e-10 1.22043e-13 -3.72125e-13 -2.3797e-10 2.09917e-13 -6.40882e-13 -1.37806e-10 1.26825e-13 -3.62583e-13 -7.73091 5.47488 -0.417314 -1.37798e-10 1.22551e-13 -3.72125e-13 -2.90554 0.965183 -0.102902 -1.37808e-10 1.23246e-13 -3.72125e-13 -10.2786 0.731801 -0.0259123 -1.37792e-10 1.22054e-13 -3.84847e-13 -2.22167 -0.733487 0.20892 -2.03217e-16 0.0 -3.88251e-19 1.24885 -5.45297 -0.109165 6.90207e-05 4.32233 0.0238783 -0.510704 1.12952 0.0812384 2.03217e-16 0.0 3.88251e-19 0.249698 -1.91924 0.0129227 0.00928345 -2.07855 0.0766825 0.496224 3.99654 -0.13794
-177.929 81.9768 -12.24 8.3762 81.4339 41.3207 -0.158065 -10.6593 0.742698 1.49768 4.14563 0.232204 0.884665 -0.071128 2.16921 -2.83619 -0.882445 4.05703 -0.0 0.0 0.0 -0.0 0.0 0.0 1.29101e-14 -8.47837e-13 2.79048e-14 21.4235 4.86212 1.26483 -4.3553 -2.00658 6.77229 0.00304431 -1.2321 -0.173019 -5.13412e-10 -4.81361e-10 4.87272e-10 -8.88496e-10 -8.3436e-10 8.42582e-10 -5.13405e-10 -4.81354e-10 4.87253e-10 7.73091 5.47488 0.417314 -5.13412e-10 -4.81359e-10 4.87274e-10 2.90554 0.965183 0.102902 -5.13405e-10 -4.81359e-10 4.87275e-10 10.2786 0.731801 0.0259123 -5.13416e-10 -4.81361e-10 4.87283e-10 2.22167 -0.733487 -0.20892 1.28489e-14 -8.47838e-13 2.75798e-14 -22.2477 11.4452 -2.32513 4.1992 -1.90279 -6.56564 -0.0134651 -2.72182 0.381174 -2.73582e-10 5.55682e-11 -3.38336e-10 -4.71496e-10 9.6003e-11 -5.85842e-10 -2.73588e-10 5.55714e-11 -3.38329e-10 -7.73091 5.47488 -0.417314 -2.73583e-10 5.55688e-11 -3.38334e-10 -2.90554 0.965183 -0.102902 -2.7359e-10 5.5569e-11 -3.38338e-10 -10.2786 0.731801 -0.0259123 -2.73575e-10 5.5569e-11 -3.38347e-10 -2.22167 -0.733487 0.20892 -2.03217e-16 0.0 -3.88251e-19 -1.90245 -16.8367 -2.83055 0.009945 11.2786 0.143355 -0.695374 -1.43539 -3.29057 2.03217e-16 0.0 3.88251e-19 0.460089 -13.2575 1.08133 -0.055572 6.05937 -0.148453 1.37882 -2.37443 7.17545
-177.687 81.9619 -12.4851 7.986 80.8781 40.6048 -1.09868 -21.9393 1.57314 2.78183 8.5384 0.429267 1.76878 -0.189782 4.40567 -5.63378 -1.81747 8.24201 -0.0 0.0 0.0 -0.0 0.0 0.0 4.41299e-14 -1.88371e-12 6.34465e-14 43.8215 10.0234 2.64874 -8.4471 -4.03403 13.9573 -0.00184074 -2.51822 -0.353897 -9.62368e-10 -1.05031e-09 1.06825e-09 -1.66603e-09 -1.82049e-09 1.84714e-09 -9.62361e-10 -1.0503e-09 1.06822e-09 7.73091 5.47488 0.417314 -9.62368e-10 -1.05031e-09 1.06825e-09 2.90554 0.965183 0.102902 -9.62358e-10 -1.05031e-09 1.06825e-09 10.2786 0.731801 0.0259123 -9.6237e-10 -1.05031e-09 1.06826e-09 2.22167 -0.733487 -0.20892 4.41086e-14 -1.88372e-12 6.32011e-14 -44.7025 23.5265 -5.09543 8.19348 -3.84867 -13.5714 0.0132382 -5.70068 0.801452 -4.40718e-10 1.1816e-10 -7.44775e-10 -7.59096e-10 2.04151e-10 -1.28951e-09 -4.4072e-10 1.18162e-10 -7.44771e-10 -7.73091 5.47488 -0.417314 -4.40718e-10 1.18161e-10 -7.44771e-10 -2.90554 0.965183 -0.102902 -4.40721e-10 1.18161e-10 -7.44779e-10 -10.2786 0.731801 -0.0259123 -4.40709e-10 1.18162e-10 -7.44784e-10 -2.22167 -0.733487 0.20892 -2.03217e-16 0.0 -3.88251e-19 -6.57859 -28.8076 -6.25958 -0.0131381 18.6629 0.279067 -1.21801 -4.09496 -6.88067 2.03217e-16 0.0 3.88251e-19 1.15742 -25.2507 2.38529 -0.0525693 14.6557 -0.397059 4.07146 -8.82026 15.0726
-177.502 81.95 -12.66 6.5988 80.6674 38.6602 -1.52287 -31.9471 2.51649 3.86773 12.4454 0.615155 2.67011 -0.212161 6.50766 -8.13646 -2.5943 12.1823 -0.0 0.0 0.0 -0.0 0.0 0.0 6.68618e-14 -2.54353e-12 8.34162e-14 63.6089 14.5574 3.90644 -11.6701 -5.68403 20.4091 -0.0132302 -3.69616 -0.520019 -1.26459e-09 -1.44424e-09 1.46257e-09 -2.18944e-09 -2.50336e-09 2.52903e-09 -1.26458e-09 -1.44423e-09 1.46253e-09 7.73091 5.47488 0.417314 -1.26459e-09 -1.44424e-09 1.46256e-09 2.90554 0.965183 0.102902 -1.26458e-09 -1.44424e-09 1.46257e-09 10.2786 0.731801 0.0259123 -1.26459e-09 -1.44424e-09 1.46258e-09 2.22167 -0.733487 -0.20892 6.6872e-14 -2.54354e-12 8.32364e-14 -63.4747 34.0852 -8.26377 11.3131 -5.40915 -19.7777 0.0691893 -8.164 1.15393 -5.45152e-10 1.66461e-10 -1.01426e-09 -9.38548e-10 2.87589e-10 -1.75624e-09 -5.45152e-10 1.66461e-10 -1.01426e-09 -7.73091 5.47488 -0.417314 -5.45152e-10 1.66461e-10 -1.01426e-09 -2.90554 0.965183 -0.102902 -5.45152e-10 1.6646e-10 -1.01427e-09 -10.2786 0.731801 -0.0259123 -5.45141e-10 1.66463e-10 -1.01427e-09 -2.22167 -0.733487 0.20892 -2.03217e-16 0.0 -3.88251e-19 -12.2737 -39.2119 -10.2308 -0.0657756 25.1907 0.413463 -1.97003 -6.47141 -10.096 2.03217e-16 0.0 3.88251e-19 2.40578 -35.8789 3.86607 0.0181832 22.334 -0.644482 8.01319 -14.0659 22.4925
-177.41 81.9438 -12.74 3.2144 80.5814 34.582 -1.31243 -38.7934 3.43638 4.51527 15.1386 0.761512 3.58614 0.00316627 8.2734 -10.1607 -3.02219 15.4999 -0.0 0.0 0.0 -0.0 0.0 0.0 6.83739e-14 -2.26321e-12 6.44559e-14 77.3635 17.5529 4.73575 -13.6937 -6.70989 24.9398 -0.0260649 -4.60376 -0.648426 -1.19998e-09 -1.40061e-09 1.39023e-09 -2.07754e-09 -2.42809e-09 2.40426e-09 -1.19998e-09 -1.4006e-09 1.3902e-09 7.73091 5.47488 0.417314 -1.19998e-09 -1.40061e-09 1.39023e-09 2.90554 0.965183 0.102902 -1.19997e-09 -1.40061e-09 1.39024e-09 10.2786 0.731801 0.0259123 -1.19998e-09 -1.40061e-09 1.39024e-09 2.22167 -0.733487 -0.20892 6.83944e-14 -2.26322e-12 6.43068e-14 -75.4793 41.0644 -11.2207 13.1729 -6.30599 -23.9042 0.108206 -9.34018 1.32455 -4.92832e-10 1.7903e-10 -9.41381e-10 -8.47629e-10 3.09252e-10 -1.63064e-09 -4.92831e-10 1.7903e-10 -9.41381e-10 -7.73091 5.47488 -0.417314 -4.92833e-10 1.79032e-10 -9.41374e-10 -2.90554 0.965183 -0.102902 -4.92831e-10 1.7903e-10 -9.41387e-10 -10.2786 0.731801 -0.0259123 -4.92822e-10 1.79033e-10 -9.41387e-10 -2.22167 -0.733487 0.20892 -2.03217e-16 0.0 -3.88251e-19 -17.3042 -46.0769 -13.7257 -0.120776 29.5778 0.51598 -2.66808 -8.23133 -12.3143 2.03217e-16 0.0 3.88251e-19 3.86423 -43.1475 5.18471 0.112207 27.7187 -0.843639 11.6626 -17.3506 27.9821
-177.354 81.9464 -12.7795 -0.481 80.394 30.1716 -0.609219 -41.1694 4.04159 4.56578 16.1262 0.843907 4.51364 0.524656 9.57924 -11.6625 -2.98207 17.9387 -0.0 0.0 0.0 -0.0 0.0 0.0 3.48795e-14 -2.86162e-13 -2.88933e-14 82.8947 18.3854 4.9148 -14.4417 -7.08045 26.7275 -0.0346881 -5.16297 -0.727703 -4.92454e-10 -5.66545e-10 4.87628e-10 -8.52037e-10 -9.83367e-10 8.44286e-10 -4.92448e-10 -5.66539e-10 4.87601e-10 7.73091 5.47488 0.417314 -4.92455e-10 -5.66543e-10 4.87631e-10 2.90554 0.965183 0.102902 -4.92443e-10 -5.66545e-10 4.87631e-10 10.2786 0.731801 0.0259123 -4.92454e-10 -5.66543e-10 4.87638e-10 2.22167 -0.733487 -0.20892 3.48745e-14 -2.86167e-13 -2.90699e-14 -79.585 43.2911 -12.7772 13.64 -6.46669 -25.0584 0.0870874 -8.57565 1.21381 -1.66507e-10 1.22889e-10 -2.85729e-10 -2.84005e-10 2.12073e-10 -4.96882e-10 -1.66505e-10 1.2289e-10 -2.85729e-10 -7.73091 5.47488 -0.417314 -1.66508e-10 1.22892e-10 -2.85724e-10 -2.90554 0.965183 -0.102902 -1.66507e-10 1.22891e-10 -2.85735e-10 -10.2786 0.731801 -0.0259123 -1.66497e-10 1.22894e-10 -2.85735e-10 -2.22167 -0.733487 0.20892 -2.03217e-16 0.0 -3.88251e-19 -19.2345 -48.3402 -14.9608 -0.143409 31.0713 0.555387 -2.96956 -9.20307 -12.8823 2.03217e-16 0.0 3.88251e-19 4.8377 -45.7351 5.67616 0.161137 29.9073 -0.937815 13.4387 -18.7034 30.3161
-177.299 81.9575 -12.7903 -3.584 80.3259 26.6348 0.286353 -40.363 4.30193 4.19784 15.8962 0.877921 5.43554 1.26329 10.5576 -12.833 -2.62359 19.7477 -0.0 0.0 0.0 -0.0 0.0 0.0 -2.33673e-14 2.88472e-12 -1.7443e-13 82.5926 17.6784 4.61064 -14.367 -7.0459 26.5434 -0.0385948 -5.47193 -0.771498 6.68143e-10 8.23657e-10 -9.99602e-10 1.15822e-09 1.42486e-09 -1.72627e-09 6.68148e-10 8.23654e-10 -9.99619e-10 7.73091 5.47488 0.417314 6.68141e-10 8.23656e-10 -9.99593e-10 2.90554 0.965183 0.102902 6.68151e-10 8.23652e-10 -9.99599e-10 10.2786 0.731801 0.0259123 6.68142e-10 8.23658e-10 -9.99591e-10 2.22167 -0.733487 -0.20892 -2.34232e-14 2.88471e-12 -1.74676e-13 -78.5679 42.2024 -12.9253 13.1736 -6.1442 -24.0821 0.0381602 -6.43112 0.906209 3.52939e-10 1.85592e-11 7.8126e-10 6.12778e-10 3.15475e-11 1.34846e-09 3.52942e-10 1.85624e-11 7.8126e-10 -7.73091 5.47488 -0.417314 3.5294e-10 1.85641e-11 7.81261e-10 -2.90554 0.965183 -0.102902 3.52937e-10 1.8563e-11 7.81255e-10 -10.2786 0.731801 -0.0259123 3.52948e-10 1.85654e-11 7.81254e-10 -2.22167 -0.733487 0.20892 -2.03217e-16 0.0 -3.88251e-19 -18.3345 -47.4153 -14.0561 -0.133669 30.4933 0.543775 -2.91184 -9.63263 -12.2657 2.03217e-16 0.0 3.88251e-19 5.22534 -44.9954 5.37942 0.155798 29.8127 -0.943408 13.5223 -18.9172 30.2599
-177.231 81.9906 -12.789 -6.1442 80.436 23.8769 1.18865 -38.3825 4.40066 3.68019 15.1893 0.892784 6.32317 2.12304 11.3908 -13.8473 -2.16641 21.3043 -0.0 0.0 0.0 -0.0 0.0 0.0 -8.30366e-14 5.92428e-12 -3.09024e-13 79.9471 16.4003 4.07386 -13.9649 -6.85069 25.5737 -0.0396783 -5.63278 -0.794253 1.803e-09 2.15173e-09 -2.43754e-09 3.12371e-09 3.72562e-09 -4.21165e-09 1.803e-09 2.15172e-09 -2.43755e-09 7.73091 5.47488 0.417314 1.803e-09 2.15172e-09 -2.43753e-09 2.90554 0.965183 0.102902 1.803e-09 2.15172e-09 -2.43754e-09 10.2786 0.731801 0.0259123 1.803e-09 2.15173e-09 -2.43753e-09 2.22167 -0.733487 -0.20892 -8.31435e-14 5.92427e-12 -3.09339e-13 -75.554 39.7169 -12.4689 12.3185 -5.62286 -22.281 0.00909788 -3.95743 0.556096 8.62351e-10 -7.51457e-11 1.84727e-09 1.49213e-09 -1.30547e-10 3.19225e-09 8.62353e-10 -7.514e-11 1.84727e-09 -7.73091 5.47488 -0.417314 8.62352e-10 -7.51391e-11 1.84727e-09 -2.90554 0.965183 -0.102902 8.62345e-10 -7.51399e-11 1.84727e-09 -10.2786 0.731801 -0.0259123 8.62358e-10 -7.51382e-11 1.84727e-09 -2.22167 -0.733487 0.20892 -2.03217e-16 0.0 -3.88251e-19 -16.3935 -45.1644 -12.2755 -0.108966 28.9213 0.508716 -2.76738 -9.83253 -11.5086 2.03217e-16 0.0 3.88251e-19 5.39438 -42.9628 4.83041 0.127899 28.7824 -0.910475 12.8499 -18.6356 29.1709
-177.15 82.0854 -12.778 -8.3164 80.7009 21.6635 1.9626 -37.2329 4.54971 3.27949 14.7465 0.918248 7.14625 3.00744 12.2608 -14.8597 -1.82057 22.9851 -0.0 0.0 0.0 -0.0 0.0 0.0 -1.20798e-13 7.50738e-12 -3.69541e-13 78.4722 15.5223 3.54465 -13.7266 -6.73587 25.0055 -0.0406886 -5.74762 -0.810523 2.4333e-09 2.79941e-09 -3.19227e-09 4.21494e-09 4.84793e-09 -5.51609e-09 2.43331e-09 2.79939e-09 -3.19227e-09 7.73091 5.47488 0.417314 2.4333e-09 2.7994e-09 -3.19226e-09 2.90554 0.965183 0.102902 2.43331e-09 2.79939e-09 -3.19227e-09 10.2786 0.731801 0.0259123 2.4333e-09 2.79941e-09 -3.19226e-09 2.22167 -0.733487 -0.20892 -1.20932e-13 7.50737e-12 -3.69889e-13 -73.6391 37.7369 -12.2138 11.6601 -5.21311 -20.9539 0.00597492 -2.2065 0.310259 1.15857e-09 -9.94114e-11 2.49999e-09 2.00346e-09 -1.72434e-10 4.32133e-09 1.15857e-09 -9.94039e-11 2.5e-09 -7.73091 5.47488 -0.417314 1.15857e-09 -9.9404e-11 2.49999e-09 -2.90554 0.965183 -0.102902 1.15856e-09 -9.94048e-11 2.49999e-09 -10.2786 0.731801 -0.0259123 1.15858e-09 -9.94035e-11 2.49999e-09 -2.22167 -0.733487 0.20892 -2.03217e-16 0.0 -3.88251e-19 -15.0459 -43.481 -10.7525 -0.0863337 27.433 0.477464 -2.83064 -10.1159 -11.6614 2.03217e-16 0.0 3.88251e-19 5.65913 -41.6763 4.52392 0.11241 28.1639 -0.891032 12.42 -18.4621 28.4353
